Coordinates
version=1
nRows=24
nColumns=24
inDegrees=yes

Units are S.I. units (second, meters, Newtons, ...)
If the header above contains a line with 'inDegrees', this indicates whether rotational values are in degrees (yes) or radians (no).

endheader
time	pelvis_tilt	pelvis_list	pelvis_rotation	pelvis_tx	pelvis_ty	pelvis_tz	hip_flexion_r	hip_adduction_r	hip_rotation_r	knee_angle_r	ankle_angle_r	subtalar_angle_r	mtp_angle_r	hip_flexion_l	hip_adduction_l	hip_rotation_l	knee_angle_l	ankle_angle_l	subtalar_angle_l	mtp_angle_l	lumbar_extension	lumbar_bending	lumbar_rotation
      2.57000000	      7.42574030	     -4.44336198	    -11.39227840	      0.69053578	      0.89131622	     -0.25800371	    -23.94925800	      2.54170494	      2.13729490	    -16.31071043	     16.60651627	      0.00000000	      0.00000000	     19.27940134	     -4.89236629	    -12.06266988	     -6.59307946	      0.35999922	      0.00000000	      0.00000000	    -17.09938271	      2.35761476	     11.83563313
      2.57500000	      7.57718112	     -4.26216397	    -11.42528210	      0.69845073	      0.89066091	     -0.25783099	    -24.19031877	      2.21523929	      2.17143666	    -17.06460125	     16.28482037	      0.00000000	      0.00000000	     19.44911486	     -4.69318943	    -12.09607121	     -7.87561937	     -0.10961061	      0.00000000	      0.00000000	    -17.13396496	      2.00173223	     11.88496980
      2.58000000	      7.74319760	     -4.07344186	    -11.43824920	      0.70642255	      0.89010938	     -0.25774375	    -24.40696159	      1.88089934	      2.16215305	    -17.87546496	     15.89322183	      0.00000000	      0.00000000	     19.59631124	     -4.47020229	    -12.09199693	     -9.14603878	     -0.66839476	      0.00000000	      0.00000000	    -17.17079306	      1.64141283	     11.91795458
      2.58500000	      7.93152880	     -3.86682187	    -11.42818967	      0.71438961	      0.88964501	     -0.25773558	    -24.57257559	      1.52641292	      2.03220594	    -18.79813019	     15.36214797	      0.00000000	      0.00000000	     19.71667986	     -4.21493952	    -12.07026227	    -10.39064141	     -1.43321946	      0.00000000	      0.00000000	    -17.23325542	      1.27584910	     11.91938728
      2.59000000	      8.12406714	     -3.63696200	    -11.39431625	      0.72248451	      0.88927116	     -0.25774665	    -24.72945294	      1.16250127	      1.89621620	    -19.73747723	     14.76925894	      0.00000000	      0.00000000	     19.80759963	     -3.91905204	    -11.97090744	    -11.59257170	     -2.19379238	      0.00000000	      0.00000000	    -17.27015207	      0.89968100	     11.89406399
      2.59500000	      8.32659083	     -3.39075510	    -11.32175563	      0.73058352	      0.88894098	     -0.25783065	    -24.82301708	      0.79177914	      1.64620785	    -20.79093582	     14.05232609	      0.00000000	      0.00000000	     19.90266221	     -3.59317059	    -11.85239622	    -12.80418982	     -2.96482994	      0.00000000	      0.00000000	    -17.35801742	      0.46697337	     11.85074226
      2.60000000	      8.53733209	     -3.08497797	    -11.22147350	      0.73886521	      0.88879045	     -0.25811912	    -24.90456389	      0.34674540	      1.29580696	    -21.83688073	     13.10120415	      0.00000000	      0.00000000	     19.91924186	     -3.15361725	    -11.59671396	    -13.86374449	     -3.91456387	      0.00000000	      0.00000000	    -17.37099987	      0.06982903	     11.67992479
      2.60500000	      8.76738132	     -2.82817415	    -11.11578066	      0.74694892	      0.88860140	     -0.25818230	    -24.92944461	     -0.00963330	      1.00605447	    -23.03121762	     12.32582212	      0.00000000	      0.00000000	     19.98687724	     -2.80777589	    -11.42944551	    -15.08941878	     -4.40229166	      0.00000000	      0.00000000	    -17.46947070	     -0.40544907	     11.62814293
      2.61000000	      8.98267038	     -2.43572989	    -10.91565061	      0.75547159	      0.88858586	     -0.25861637	    -24.93001594	     -0.52344224	      0.35895284	    -24.17359173	     10.92834005	      0.00000000	      0.00000000	     19.96160172	     -2.22720195	    -11.05209495	    -16.06226411	     -5.22227928	      0.00000000	      0.00000000	    -17.44069241	     -0.90444538	     11.23810931
      2.61500000	      9.24338535	     -2.17268796	    -10.81712071	      0.76336678	      0.88852174	     -0.25888695	    -24.80122015	     -0.92733240	     -0.04515302	    -25.62540356	      9.99409310	      0.00000000	      0.00000000	     19.99011490	     -1.84473429	    -10.81353517	    -17.27567662	     -5.50425554	      0.00000000	      0.00000000	    -17.63196873	     -1.35201031	     11.18475777
      2.62000000	      9.44017881	     -1.73680102	    -10.61983920	      0.77198671	      0.88863030	     -0.25953510	    -24.65117953	     -1.53251439	     -0.83746932	    -26.91789208	      8.16517485	      0.00000000	      0.00000000	     19.93089401	     -1.18029282	    -10.36889906	    -18.19622054	     -5.86918329	      0.00000000	      0.00000000	    -17.55905588	     -1.85742388	     10.79320529
      2.62500000	      9.67895372	     -1.36162697	    -10.44716926	      0.78022288	      0.88870768	     -0.26014102	    -24.42085456	     -2.08696177	     -1.54201913	    -28.41412834	      6.56847399	      0.00000000	      0.00000000	     19.87941398	     -0.59931194	     -9.99431034	    -19.23358912	     -5.95010407	      0.00000000	      0.00000000	    -17.64048743	     -2.34225189	     10.46139619
      2.63000000	      9.91415687	     -0.98415782	    -10.30932676	      0.78843381	      0.88885507	     -0.26077875	    -24.12080933	     -2.68049472	     -2.23996083	    -29.97266138	      4.80802255	      0.00000000	      0.00000000	     19.79663541	     -0.00882097	     -9.62203211	    -20.24149105	     -5.86269030	      0.00000000	      0.00000000	    -17.71210437	     -2.82790188	     10.23046948
      2.63500000	     10.14616203	     -0.54549590	    -10.08412693	      0.79671622	      0.88899036	     -0.26160880	    -23.78564933	     -3.33471733	     -3.09759646	    -31.55828487	      2.84373088	      0.00000000	      0.00000000	     19.69999526	      0.69222813	     -9.18700133	    -21.21147654	     -5.65293559	      0.00000000	      0.00000000	    -17.79126871	     -3.33891405	      9.66752375
      2.64000000	     10.38212664	     -0.14628288	     -9.98406262	      0.80488232	      0.88921446	     -0.26236662	    -23.35670957	     -4.02662578	     -3.82100632	    -33.23998486	      0.69791158	      0.00000000	      0.00000000	     19.54337620	      1.32169590	     -8.88464165	    -22.13885867	     -5.21336551	      0.00000000	      0.00000000	    -17.86595260	     -3.82232431	      9.55474666
      2.64500000	     10.60969023	      0.27945930	     -9.86777979	      0.81304123	      0.88945142	     -0.26320939	    -22.88017088	     -4.76182084	     -4.56383969	    -34.93930280	     -1.55651291	      0.00000000	      0.00000000	     19.36234713	      2.00151090	     -8.56342038	    -23.01784932	     -4.66878410	      0.00000000	      0.00000000	    -17.93675899	     -4.31469571	      9.38519168
      2.65000000	     10.83644158	      0.71629102	     -9.75614236	      0.82116766	      0.88971956	     -0.26408794	    -22.36069179	     -5.53252308	     -5.28954654	    -36.65844082	     -3.90477026	      0.00000000	      0.00000000	     19.14233626	      2.70304347	     -8.26163835	    -23.84277402	     -4.00940234	      0.00000000	      0.00000000	    -18.00985808	     -4.80720771	      9.18227305
      2.65500000	     11.06103978	      1.16204246	     -9.64611937	      0.82926212	      0.88999295	     -0.26493270	    -21.80381920	     -6.32466926	     -5.98261995	    -38.39052356	     -6.29057162	      0.00000000	      0.00000000	     18.88126653	      3.41324019	     -7.99522345	    -24.60899681	     -3.26655967	      0.00000000	      0.00000000	    -18.07951918	     -5.31643382	      8.95163053
      2.66000000	     11.28853053	      1.60181100	     -9.54533709	      0.83724692	      0.89030244	     -0.26585537	    -21.21000392	     -7.12785196	     -6.60491262	    -40.13270119	     -8.63838822	      0.00000000	      0.00000000	     18.58600103	      4.12980519	     -7.73917722	    -25.32921757	     -2.46369295	      0.00000000	      0.00000000	    -18.17410224	     -5.78149844	      8.73046783
      2.66500000	     11.55799584	      1.91529088	     -9.38326767	      0.84452489	      0.89044549	     -0.26675956	    -20.55395597	     -7.74702694	     -7.08721702	    -42.05024829	    -10.34374451	      0.00000000	      0.00000000	     18.33429449	      4.70666708	     -7.45128704	    -26.18127096	     -1.94336556	      0.00000000	      0.00000000	    -18.52135688	     -6.12842570	      8.63544574
      2.67000000	     11.71090122	      2.46745948	     -9.35506853	      0.85309826	      0.89102350	     -0.26741894	    -19.92527119	     -8.68912654	     -7.61909188	    -43.56428334	    -13.09907161	      0.00000000	      0.00000000	     17.87968317	      5.51744361	     -7.34084850	    -26.54879943	     -0.71799666	      0.00000000	      0.00000000	    -18.32645926	     -6.78090124	      8.30607291
      2.67500000	     11.90797296	      2.90510686	     -9.26317676	      0.86089410	      0.89143129	     -0.26811486	    -19.22670189	     -9.44929844	     -7.99494916	    -45.26790856	    -15.03533993	      0.00000000	      0.00000000	     17.48067072	      6.20756852	     -7.18064388	    -27.05217536	      0.13875605	      0.00000000	      0.00000000	    -18.40449934	     -7.28813638	      8.00514376
      2.68000000	     12.09086093	      3.30574734	     -9.17261312	      0.86856701	      0.89187076	     -0.26873724	    -18.48534332	    -10.14563624	     -8.27463766	    -46.96225264	    -16.69891610	      0.00000000	      0.00000000	     17.05919524	      6.84288754	     -7.05487356	    -27.50078138	      0.98903279	      0.00000000	      0.00000000	    -18.48754195	     -7.75234994	      7.73430791
      2.68500000	     12.30504123	      3.54936792	     -8.96696826	      0.87563706	      0.89230680	     -0.26935617	    -17.74579567	    -10.56984841	     -8.45139019	    -48.69390825	    -17.69836780	      0.00000000	      0.00000000	     16.65261626	      7.31938917	     -6.81631811	    -28.02955972	      1.47904076	      0.00000000	      0.00000000	    -18.77941570	     -7.96755460	      7.62891911
